<svg xmlns="http://www.w3.org/2000/svg" xmlns:xlink="http://www.w3.org/1999/xlink" viewBox="0 0 40 64" fill="#fff" fill-rule="evenodd" stroke="#000" stroke-linecap="round" stroke-linejoin="round"><use xlink:href="#A" x=".5" y=".5"/><symbol id="A" overflow="visible"><path d="M.393 4.719v13.765h33.822V4.719z" stroke="none" fill="#000"/><g stroke="#fff" stroke-width=".787"><path d="M.393 4.719v13.765h33.822V4.719" stroke-linejoin="miter" stroke-linecap="square" fill="none"/><g fill="#000"><path d="M.393 4.719L6.292 0h32.642l-4.719 4.719H.393z"/><path d="M34.216 18.484l4.719-4.719V0l-4.719 4.719v13.765z"/></g><path d="M34.215 9.439H.393M36.575 2.36H2.753m31.462 11.799H.393m37.755-9.045L34.215 9.44m3.933.393l-3.933 4.326" fill="none"/></g><path d="M10.225 5.113v4.326z" stroke="none" fill="#000"/><path d="M10.226 5.113v4.326m12.978-4.326v4.326m-12.978 4.719v4.326m12.978-4.326v4.326m-6.292-9.045v4.326M3.933 9.439v4.326m26.35-4.326v4.326M16.125 0l-5.899 5.113M29.496 0l-6.292 5.113" stroke="#fff" fill="none" stroke-width=".787"/><path d="M34.216 18.091v26.743H0V18.878z" stroke="none" fill="#000"/><g stroke="#fff" stroke-linejoin="miter" stroke-width=".787"><path d="M34.216 18.091v26.743H0V18.878" stroke-linecap="square" fill="none"/><g fill="#000"><path d="M0 62.532V44.834h34.216v17.698H0z"/><path d="M38.542 57.813V40.115l-4.326 4.719v17.698l4.326-4.719z"/><path d="M38.542 40.115V14.158l-4.326 4.326v26.35l4.326-4.719z"/></g></g><g stroke="none"><path d="M17.698 29.103v-5.899h1.18l-1.573-2.36-1.573 2.36h1.18v5.899h.787zm-3.146.787l-3.933-4.326.787-.393-2.753-.787.393 2.753.787-.787 4.326 4.326.393-.787zm-1.573 2.753H7.079v-1.18l-1.966 1.573 1.966 1.573v-1.18h5.899v-.787zm1.18 3.146l-4.326 3.933-.787-.393-.393 2.36 2.753-.393-.787-.787 3.933-4.326-.393-.393zm2.753-.787v11.405h-1.18l1.573 2.36 1.573-2.36h-1.18V35.002h-.787zm2.753 1.18l4.326 4.326-.787.787 2.753.393-.787-2.36-.393.393-4.326-3.933-.787.393zm1.573-2.753h5.899v1.18l2.36-1.573-2.36-1.573v1.18h-5.899v.787zm-.787-2.753l4.326-4.326.393.787.787-2.753-2.753.787.787.393-4.326 4.326.787.787z"/><path d="M20.839 38.155c2.753-1.966 3.54-5.899 1.573-8.652s-5.899-3.54-8.652-1.573-3.54 5.899-1.573 8.652 5.899 3.539 8.652 1.573z"/><path d="M.393 18.484h33.429z" fill="#000"/></g><path d="M.393 18.485h33.429M36.575 2.36v12.978" stroke="#fff" fill="none" stroke-width=".787"/><g stroke="none"><path d="M11.799 50.733z" fill="#000"/><path d="M16.912 52.307h9.045v-.786l2.753 1.573-2.753 1.966v-.787h-9.045v-1.966zm0 5.506h9.045v-.787l2.753 1.966-2.753 1.573v-.787h-9.045v-1.966zm0-8.259H7.866v-.787l-2.753 1.966 2.753 1.573v-.786h9.046v-1.966zm0 5.506H7.866v-.787l-2.753 1.967 2.753 1.573v-.787h9.046V55.06z"/></g></symbol></svg>